<?xml version="1.0" encoding="UTF-8" standalone="no"?>
<svg
   xmlns:dc="http://purl.org/dc/elements/1.1/"
   xmlns:cc="http://creativecommons.org/ns#"
   xmlns:rdf="http://www.w3.org/1999/02/22-rdf-syntax-ns#"
   xmlns:svg="http://www.w3.org/2000/svg"
   xmlns="http://www.w3.org/2000/svg"
   xmlns:sodipodi="http://sodipodi.sourceforge.net/DTD/sodipodi-0.dtd"
   xmlns:inkscape="http://www.inkscape.org/namespaces/inkscape"
   width="23"
   height="23"
   viewBox="0 0 23 23"
   version="1.1"
   id="svg6"
   sodipodi:docname="slider-button.svg"
   inkscape:version="0.92.4 (5da689c313, 2019-01-14)">
  <metadata
     id="metadata12">
    <rdf:RDF>
      <cc:Work
         rdf:about="">
        <dc:format>image/svg+xml</dc:format>
        <dc:type
           rdf:resource="http://purl.org/dc/dcmitype/StillImage" />
      </cc:Work>
    </rdf:RDF>
  </metadata>
  <defs
     id="defs10" />
  <sodipodi:namedview
     pagecolor="#ffffff"
     bordercolor="#666666"
     borderopacity="1"
     objecttolerance="10"
     gridtolerance="10"
     guidetolerance="10"
     inkscape:pageopacity="0"
     inkscape:pageshadow="2"
     inkscape:window-width="1920"
     inkscape:window-height="1017"
     id="namedview8"
     showgrid="false"
     inkscape:zoom="10.26087"
     inkscape:cx="11.5"
     inkscape:cy="11.5"
     inkscape:window-x="-8"
     inkscape:window-y="-8"
     inkscape:window-maximized="1"
     inkscape:current-layer="svg6" />
  <path
     id="path822"
     d="M 11.5,0 C 5.149,0 0,5.149 0,11.5 0,17.852 5.149,23 11.5,23 17.852,23 23,17.852 23,11.5 23,5.149 17.852,0 11.5,0 Z"
     inkscape:connector-curvature="0"
     sodipodi:nodetypes="sssss"
     style="fill:#ffffff" />
  <path
     d="M11.5 2c5.238 0 9.5 4.262 9.5 9.5S16.738 21 11.5 21 2 16.738 2 11.5 6.262 2 11.5 2m0-2C5.149 0 0 5.149 0 11.5 0 17.852 5.149 23 11.5 23 17.852 23 23 17.852 23 11.5 23 5.149 17.852 0 11.5 0z"
     id="path2" />
  <path
     d="M11.5 9.004a2.5 2.5 0 0 1 2.496 2.496 2.5 2.5 0 0 1-2.496 2.496A2.5 2.5 0 0 1 9.004 11.5 2.5 2.5 0 0 1 11.5 9.004m0-2a4.496 4.496 0 1 0 0 8.992 4.496 4.496 0 0 0 0-8.992z"
     id="path4" />
</svg>
